# xmcd CD database file
#
# Track frame offsets:
#	150
#	24899
#	47649
#	74576
#	102526
#	136065
#	162165
#	186612
#	210045
#	237185
#	266373
#	285557
#	312004
#
# Disc length: 4623 seconds
#
# Revision: 0
# Processed by: cddbd v1.5.2PL0 Copyright (c) Steve Scherf et al.
# Submitted via: CDex 1.70beta2
#
DISCID=ae120d0d
DTITLE=トーマス・ハーデン・トリオ - JAZZで聴く…J-POP6
DYEAR=2002
DGENRE=Jazz
TTITLE0=TOMORROW
TTITLE1=Time goes by
TTITLE2=出逢った頃のように
TTITLE3=愛の言霊 -Spiritual Message-
TTITLE4=Love ～Destiny～
TTITLE5=少年時代
TTITLE6=シングル・アゲイン
TTITLE7=息子
TTITLE8=ズルい女
TTITLE9=いいわけ
TTITLE10=ワインレッドの心
TTITLE11=CAN YOU CELEBRATE?
TTITLE12=LOVE LOVE LOVE
EXTD=YEAR: 2002
EXTT0=
EXTT1=
EXTT2=
EXTT3=
EXTT4=
EXTT5=
EXTT6=
EXTT7=
EXTT8=
EXTT9=
EXTT10=
EXTT11=
EXTT12=
PLAYORDER=
